<svg xmlns="http://www.w3.org/2000/svg" width="126" height="13" fill="none"><path fill="#EFEDE8" d="M35.071 5.571a.929.929 0 1 1 0 1.858h-.642a1 1 0 0 0-1 1v1.714a1 1 0 0 1-1 1h-.643a.929.929 0 0 0-.929.928.929.929 0 0 1-.928.929H28a1 1 0 0 1-1-1V8.429a1 1 0 0 0-1-1H10a1 1 0 0 0-1 1V12a1 1 0 0 1-1 1H6.071a.929.929 0 0 1-.928-.929.929.929 0 0 0-.929-.928h-.643a1 1 0 0 1-1-1V8.429a1 1 0 0 0-1-1H.93a.929.929 0 1 1 0-1.858h.642a1 1 0 0 0 1-1V2.857a1 1 0 0 1 1-1h.643A.929.929 0 0 0 5.143.93c0-.513.416-.929.928-.929H8a1 1 0 0 1 1 1v3.571a1 1 0 0 0 1 1h16a1 1 0 0 0 1-1V1a1 1 0 0 1 1-1h1.929c.512 0 .928.416.928.929 0 .512.416.928.929.928h.643a1 1 0 0 1 1 1v1.714a1 1 0 0 0 1 1h.642ZM44 12.296V1.286h4.12c.626 0 1.191.15 1.697.449.51.298.914.7 1.21 1.203.297.503.446 1.056.446 1.659 0 .619-.154 1.18-.462 1.683a3.424 3.424 0 0 1-1.219 1.195c-.51.294-1.068.44-1.672.44h-2.11v4.38H44Zm2.01-6.3h1.895a1.538 1.538 0 0 0 1.343-.754c.143-.23.214-.488.214-.77 0-.29-.071-.549-.214-.78a1.538 1.538 0 0 0-1.343-.755H46.01v3.06ZM56.041 12.5c-.758 0-1.45-.186-2.076-.558a4.277 4.277 0 0 1-1.491-1.494 4.052 4.052 0 0 1-.552-2.084c0-.577.107-1.114.321-1.612a4.137 4.137 0 0 1 2.2-2.218 4.002 4.002 0 0 1 1.598-.322c.758 0 1.447.186 2.068.558A4.168 4.168 0 0 1 59.6 6.272c.374.629.56 1.326.56 2.092 0 .571-.106 1.106-.32 1.604-.215.498-.512.938-.89 1.321-.374.377-.81.674-1.31.889a3.965 3.965 0 0 1-1.599.322Zm0-1.919c.401 0 .76-.102 1.08-.306.318-.205.568-.475.75-.81.186-.336.28-.703.28-1.101 0-.41-.097-.781-.29-1.117a2.14 2.14 0 0 0-.765-.81 1.912 1.912 0 0 0-1.055-.307 1.94 1.94 0 0 0-1.07.307 2.224 2.224 0 0 0-.759.818c-.187.34-.28.71-.28 1.109a2.247 2.247 0 0 0 1.054 1.927c.325.193.676.29 1.055.29ZM65.309 12.296h-1.994l-2.752-7.864h1.969L64.32 9.52l1.78-5.088h1.985l1.78 5.088 1.788-5.088h1.969l-2.752 7.864h-1.994l-1.788-5.112-1.78 5.112ZM78.151 12.5c-.758 0-1.45-.186-2.076-.558a4.257 4.257 0 0 1-1.491-1.502 4.052 4.052 0 0 1-.552-2.084c0-.572.107-1.106.321-1.604.214-.504.508-.944.882-1.321a4.138 4.138 0 0 1 1.318-.897 4.003 4.003 0 0 1 1.598-.322c.643 0 1.23.13 1.763.393.539.257.995.61 1.368 1.061.374.451.645.965.816 1.542.17.576.208 1.18.115 1.808H76.19c.077.294.204.559.38.795.175.23.398.416.667.558.269.136.574.207.914.212.352.005.67-.073.956-.236.291-.167.533-.393.725-.676l2.052.456a4.257 4.257 0 0 1-1.5 1.714c-.665.44-1.409.661-2.233.661Zm-2.027-4.923h4.054a1.951 1.951 0 0 0-.387-.849 2.14 2.14 0 0 0-.717-.613 1.934 1.934 0 0 0-.923-.228c-.33 0-.634.076-.914.228a2.164 2.164 0 0 0-1.113 1.462ZM83.562 12.296l-.008-7.864h2.01l.008.7c.28-.283.615-.506 1.005-.669.39-.167.81-.251 1.26-.251.303 0 .605.042.907.125l-.79 1.935a1.765 1.765 0 0 0-.627-.118 1.778 1.778 0 0 0-1.524.834c-.154.251-.23.532-.23.841v4.467h-2.011ZM89.668 12.296V1.286h4.12c.626 0 1.192.15 1.697.449.51.298.915.7 1.211 1.203.297.503.445 1.056.445 1.659 0 .619-.154 1.18-.461 1.683a3.424 3.424 0 0 1-1.22 1.195c-.51.294-1.068.44-1.672.44h-2.11v4.38h-2.01Zm2.01-6.3h1.896a1.538 1.538 0 0 0 1.343-.754c.142-.23.214-.488.214-.77 0-.29-.072-.549-.214-.78a1.538 1.538 0 0 0-1.343-.755h-1.895v3.06ZM97.996 9.386V4.432h2.011v4.45c0 .31.079.593.238.85.16.252.371.454.635.606.269.146.563.22.881.22.33 0 .627-.074.89-.22a1.81 1.81 0 0 0 .635-.606c.159-.257.239-.54.239-.85v-4.45h2.01l.008 7.864h-2.01l-.008-.716a3.25 3.25 0 0 1-1.014.676c-.39.163-.807.244-1.252.244a3.289 3.289 0 0 1-1.64-.417 3.358 3.358 0 0 1-1.186-1.124 2.936 2.936 0 0 1-.437-1.573ZM107.241 12.296V.5h2.01v11.796h-2.01ZM113.662 12.437a4.744 4.744 0 0 1-1.244-.244 3.735 3.735 0 0 1-1.055-.574 2.476 2.476 0 0 1-.708-.865l1.697-.692c.066.105.173.218.321.338.148.116.324.213.527.291.209.079.437.118.684.118.209 0 .407-.026.593-.078.193-.058.347-.145.462-.26a.591.591 0 0 0 .181-.448.522.522 0 0 0-.214-.448 1.339 1.339 0 0 0-.527-.244c-.209-.058-.412-.11-.61-.157a6.179 6.179 0 0 1-1.458-.464 3.095 3.095 0 0 1-1.08-.81c-.269-.336-.403-.74-.403-1.211 0-.52.142-.968.428-1.345a2.856 2.856 0 0 1 1.129-.873 3.716 3.716 0 0 1 1.508-.307c.653 0 1.252.132 1.796.394.549.257.983.62 1.301 1.093l-1.59.896a1.284 1.284 0 0 0-.321-.346c-.137-.11-.294-.199-.47-.267a1.647 1.647 0 0 0-.552-.126c-.247-.01-.472.01-.675.063a1.06 1.06 0 0 0-.495.267.7.7 0 0 0-.181.504c0 .199.083.348.247.448.165.094.363.168.593.22.237.052.462.11.676.173.483.152.937.338 1.36.558.428.22.771.49 1.029.81.259.32.382.703.371 1.148 0 .509-.159.954-.478 1.337-.318.378-.73.666-1.236.865-.499.2-1.035.278-1.606.236ZM121.889 12.5c-.758 0-1.45-.186-2.077-.558a4.266 4.266 0 0 1-1.491-1.502 4.052 4.052 0 0 1-.552-2.084c0-.572.107-1.106.321-1.604a4.2 4.2 0 0 1 .882-1.321 4.135 4.135 0 0 1 1.318-.897 4.006 4.006 0 0 1 1.599-.322c.642 0 1.23.13 1.763.393.538.257.994.61 1.367 1.061.374.451.646.965.816 1.542.17.576.209 1.18.115 1.808h-6.022c.077.294.203.559.379.795.175.23.398.416.667.558.269.136.574.207.915.212.351.005.67-.073.955-.236.291-.167.533-.393.725-.676l2.052.456a4.255 4.255 0 0 1-1.5 1.714c-.664.44-1.409.661-2.232.661Zm-2.027-4.923h4.053a1.943 1.943 0 0 0-.387-.849 2.134 2.134 0 0 0-.717-.613 1.931 1.931 0 0 0-.922-.228c-.33 0-.635.076-.915.228a2.168 2.168 0 0 0-1.112 1.462Z"/></svg>