<svg xmlns="http://www.w3.org/2000/svg" width="152" height="17" fill="none"><path fill="#E6533C" d="M43 7.286a1 1 0 0 1 1 1v.428a1 1 0 0 1-1 1h-1.143a1 1 0 0 0-1 1v2.857a1 1 0 0 1-1 1h-1.143a1 1 0 0 0-1 1V16a1 1 0 0 1-1 1H34a1 1 0 0 1-1-1v-5.286a1 1 0 0 0-1-1H12a1 1 0 0 0-1 1V16a1 1 0 0 1-1 1H7.286a1 1 0 0 1-1-1v-.429a1 1 0 0 0-1-1H4.143a1 1 0 0 1-1-1v-2.857a1 1 0 0 0-1-1H1a1 1 0 0 1-1-1v-.428a1 1 0 0 1 1-1h1.143a1 1 0 0 0 1-1V3.429a1 1 0 0 1 1-1h1.143a1 1 0 0 0 1-1V1a1 1 0 0 1 1-1H10a1 1 0 0 1 1 1v5.286a1 1 0 0 0 1 1h20a1 1 0 0 0 1-1V1a1 1 0 0 1 1-1h2.714a1 1 0 0 1 1 1v.429a1 1 0 0 0 1 1h1.143a1 1 0 0 1 1 1v2.857a1 1 0 0 0 1 1H43Z"/><path fill="#EFEDE8" d="M52 15.87v-14h5c.76 0 1.447.19 2.06.57a4.23 4.23 0 0 1 2.01 3.64c0 .787-.187 1.5-.56 2.14a4.255 4.255 0 0 1-1.48 1.52c-.62.373-1.297.56-2.03.56h-2.56v5.57H52Zm2.44-8.01h2.3c.347 0 .663-.087.95-.26.287-.173.513-.407.68-.7.173-.293.26-.62.26-.98a1.91 1.91 0 0 0-.26-.99 1.903 1.903 0 0 0-.68-.7 1.8 1.8 0 0 0-.95-.26h-2.3v3.89ZM66.615 16.13c-.92 0-1.76-.237-2.52-.71a5.324 5.324 0 0 1-1.81-1.9 5.344 5.344 0 0 1-.67-2.65c0-.733.13-1.417.39-2.05.26-.64.616-1.2 1.07-1.68a5.02 5.02 0 0 1 1.6-1.14 4.668 4.668 0 0 1 1.94-.41c.92 0 1.757.237 2.51.71a5.189 5.189 0 0 1 1.81 1.91c.453.8.68 1.687.68 2.66 0 .727-.13 1.407-.39 2.04a5.418 5.418 0 0 1-1.08 1.68c-.453.48-.983.857-1.59 1.13-.6.273-1.247.41-1.94.41Zm0-2.44c.487 0 .923-.13 1.31-.39.386-.26.69-.603.91-1.03.227-.427.34-.893.34-1.4 0-.52-.117-.993-.35-1.42a2.672 2.672 0 0 0-.93-1.03 2.245 2.245 0 0 0-1.28-.39c-.48 0-.913.13-1.3.39s-.694.607-.92 1.04c-.227.433-.34.903-.34 1.41 0 .527.116 1.003.35 1.43.233.427.543.767.93 1.02.393.247.82.37 1.28.37ZM77.863 15.87h-2.42l-3.34-10h2.39l2.17 6.47 2.16-6.47h2.41l2.16 6.47 2.17-6.47h2.39l-3.34 10h-2.42l-2.17-6.5-2.16 6.5ZM93.45 16.13c-.92 0-1.76-.237-2.52-.71a5.298 5.298 0 0 1-1.81-1.91 5.343 5.343 0 0 1-.67-2.65c0-.727.13-1.407.39-2.04.26-.64.617-1.2 1.07-1.68.46-.487.994-.867 1.6-1.14a4.668 4.668 0 0 1 1.94-.41 4.6 4.6 0 0 1 2.14.5 4.866 4.866 0 0 1 1.66 1.35 5.554 5.554 0 0 1 1.13 4.26h-7.31c.094.373.247.71.46 1.01.214.293.484.53.81.71.327.173.697.263 1.11.27.427.007.814-.093 1.16-.3.354-.213.647-.5.88-.86l2.49.58a5.346 5.346 0 0 1-1.82 2.18c-.806.56-1.71.84-2.71.84Zm-2.46-6.26h4.92c-.073-.4-.23-.76-.47-1.08a2.636 2.636 0 0 0-.87-.78 2.263 2.263 0 0 0-1.12-.29c-.4 0-.77.097-1.11.29-.34.187-.63.443-.87.77-.233.32-.393.683-.48 1.09ZM100.018 15.87l-.01-10h2.44l.01.89c.34-.36.746-.643 1.22-.85.473-.213.983-.32 1.53-.32.366 0 .733.053 1.1.16l-.96 2.46a2.078 2.078 0 0 0-1.84.14c-.32.187-.577.443-.77.77-.187.32-.28.677-.28 1.07v5.68h-2.44ZM107.43 15.87v-14h5c.76 0 1.446.19 2.06.57a4.23 4.23 0 0 1 2.01 3.64c0 .787-.187 1.5-.56 2.14a4.258 4.258 0 0 1-1.48 1.52c-.62.373-1.297.56-2.03.56h-2.56v5.57h-2.44Zm2.44-8.01h2.3c.346 0 .663-.087.95-.26a1.91 1.91 0 0 0 .68-.7c.173-.293.26-.62.26-.98 0-.367-.087-.697-.26-.99a1.91 1.91 0 0 0-.68-.7 1.803 1.803 0 0 0-.95-.26h-2.3v3.89ZM117.538 12.17v-6.3h2.44v5.66c0 .393.096.753.29 1.08.193.32.45.577.77.77.326.187.683.28 1.07.28.4 0 .76-.093 1.08-.28.319-.193.576-.45.77-.77.193-.327.29-.687.29-1.08V5.87h2.44l.01 10h-2.441l-.009-.91c-.347.36-.757.647-1.23.86-.474.207-.98.31-1.52.31a3.852 3.852 0 0 1-1.991-.53 4.17 4.17 0 0 1-1.439-1.43 3.862 3.862 0 0 1-.53-2ZM128.758 15.87v-15h2.44v15h-2.44ZM136.552 16.05a5.528 5.528 0 0 1-1.51-.31 4.468 4.468 0 0 1-1.28-.73 3.12 3.12 0 0 1-.86-1.1l2.06-.88c.08.133.21.277.39.43.18.147.393.27.64.37.253.1.53.15.83.15.253 0 .493-.033.72-.1.233-.073.42-.183.56-.33a.774.774 0 0 0 .22-.57c0-.247-.087-.437-.26-.57a1.598 1.598 0 0 0-.64-.31c-.254-.073-.5-.14-.74-.2a7.251 7.251 0 0 1-1.77-.59 3.769 3.769 0 0 1-1.31-1.03c-.327-.427-.49-.94-.49-1.54 0-.66.173-1.23.52-1.71.353-.48.81-.85 1.37-1.11a4.33 4.33 0 0 1 1.83-.39c.793 0 1.52.167 2.18.5.666.327 1.193.79 1.58 1.39l-1.93 1.14a1.621 1.621 0 0 0-.39-.44 2.13 2.13 0 0 0-.57-.34 1.939 1.939 0 0 0-.67-.16c-.3-.013-.574.013-.82.08-.247.067-.447.18-.6.34-.147.16-.22.373-.22.64 0 .253.1.443.3.57.2.12.44.213.72.28.286.067.56.14.82.22a9.97 9.97 0 0 1 1.65.71c.52.28.936.623 1.25 1.03.313.407.463.893.45 1.46 0 .647-.194 1.213-.58 1.7-.387.48-.887.847-1.5 1.1a4.163 4.163 0 0 1-1.95.3ZM146.537 16.13c-.92 0-1.76-.237-2.52-.71a5.29 5.29 0 0 1-1.81-1.91 5.34 5.34 0 0 1-.67-2.65c0-.727.13-1.407.39-2.04.26-.64.616-1.2 1.07-1.68.46-.487.993-.867 1.6-1.14a4.665 4.665 0 0 1 1.94-.41c.78 0 1.493.167 2.14.5a4.874 4.874 0 0 1 1.66 1.35 5.564 5.564 0 0 1 1.13 4.26h-7.31c.093.373.246.71.46 1.01.213.293.483.53.81.71.326.173.696.263 1.11.27.426.007.813-.093 1.16-.3.353-.213.646-.5.88-.86l2.49.58a5.353 5.353 0 0 1-1.82 2.18c-.807.56-1.71.84-2.71.84Zm-2.46-6.26h4.92c-.074-.4-.23-.76-.47-1.08a2.647 2.647 0 0 0-.87-.78 2.263 2.263 0 0 0-1.12-.29c-.4 0-.77.097-1.11.29-.34.187-.63.443-.87.77-.234.32-.394.683-.48 1.09Z"/></svg>